<?xml version="1.0" encoding="UTF-8" standalone="no"?>
<!-- Generator: Adobe Illustrator 21.0.0, SVG Export Plug-In . SVG Version: 6.00 Build 0)  -->

<svg
   version="1.1"
   id="Layer_1"
   x="0px"
   y="0px"
   viewBox="0 0 500 500"
   xml:space="preserve"
   sodipodi:docname="logo.svg"
   width="500"
   height="500"
   inkscape:export-filename="logo3.png"
   inkscape:export-xdpi="96"
   inkscape:export-ydpi="96"
   inkscape:version="1.3.2 (091e20e, 2023-11-25, custom)"
   xmlns:inkscape="http://www.inkscape.org/namespaces/inkscape"
   xmlns:sodipodi="http://sodipodi.sourceforge.net/DTD/sodipodi-0.dtd"
   xmlns="http://www.w3.org/2000/svg"
   xmlns:svg="http://www.w3.org/2000/svg"><defs
   id="defs64" /><sodipodi:namedview
   id="namedview64"
   pagecolor="#ffffff"
   bordercolor="#000000"
   borderopacity="0.25"
   inkscape:showpageshadow="2"
   inkscape:pageopacity="0.0"
   inkscape:pagecheckerboard="0"
   inkscape:deskcolor="#d1d1d1"
   showgrid="false"
   inkscape:zoom="0.5"
   inkscape:cx="-55"
   inkscape:cy="483"
   inkscape:window-width="1920"
   inkscape:window-height="1009"
   inkscape:window-x="1592"
   inkscape:window-y="-8"
   inkscape:window-maximized="1"
   inkscape:current-layer="Layer_1" />
<style
   type="text/css"
   id="style1">
	.st0{fill:url(#SVGID_1_);}
	.st1{fill:url(#SVGID_2_);}
	.st2{fill:url(#SVGID_3_);}
	.st3{fill:url(#SVGID_4_);}
	.st4{fill:url(#SVGID_5_);}
	.st5{fill:url(#SVGID_6_);}
	.st6{fill:url(#SVGID_7_);}
	.st7{fill:url(#SVGID_8_);}
</style>

<rect
   style="fill:#e6e6e6;fill-opacity:1;stroke:#000000;stroke-width:22.8599;stroke-dasharray:none;stroke-opacity:1"
   id="rect66"
   width="477.14014"
   height="477.14014"
   x="11.429909"
   y="11.429935"
   ry="74.850487" /><path
   d="m 137.6644,320.05649 h -4.90191 q -0.4085,0 -2.85945,0.40849 -2.04247,0 -4.90192,0.40849 -2.85945,0.4085 -6.12739,1.22548 -2.85946,0.4085 -4.49343,0.81699 -0.81698,0 -3.26794,0.40849 -2.04247,0.4085 -4.49343,0.81699 -2.45095,0 -4.49342,0.40849 -2.04246,0.40849 -2.450956,0.40849 -3.267944,0.81699 -8.986847,2.04247 -5.718902,0.81699 -11.846297,1.63397 -6.127395,0.81699 -11.029311,1.63397 -4.901916,0.81699 -5.718902,0.81699 -0.816986,0.40849 -3.267944,1.22548 -2.859452,0.81699 -5.718903,1.63397 -3.267944,0.81699 -5.718902,1.22548 -2.859451,0.81699 -3.676437,0.81699 H 38.400602 32.6817 q 0,-0.81699 -0.816986,-2.45096 -0.816986,-1.63397 -0.816986,-2.45096 v -0.81699 -1.22548 q 0,-0.40849 2.042465,-4.08493 1.633972,-3.67643 2.042465,-4.90191 0.816986,-0.81699 2.450958,-3.26795 1.633972,-2.45095 2.450958,-2.85945 0,-0.81698 3.267944,-3.26794 3.267944,-2.85945 4.901916,-3.67644 0.408493,0 2.042465,-0.81698 1.633972,-1.22548 3.676437,-2.45096 1.633972,-1.22548 3.267944,-2.04247 1.633973,-0.81698 2.042466,-0.81698 0.408493,-0.4085 2.042465,-1.63397 1.633972,-1.63398 3.676437,-3.26795 2.450958,-2.04246 4.493423,-3.67644 2.450958,-1.63397 3.676437,-2.45095 0,-0.81699 0.816986,-1.22548 1.225479,-0.81699 1.225479,-1.63398 1.225479,-1.63397 4.08493,-4.49342 2.859451,-3.26794 5.310409,-6.12739 2.859451,-3.26795 4.901916,-5.71891 2.450958,-2.45095 2.859451,-2.85945 1.22548,-1.22548 4.493424,-5.31041 3.267947,-4.08493 4.493427,-5.7189 0.81698,-1.22548 2.45095,-4.08493 2.04247,-2.85945 4.08493,-5.7189 2.04247,-2.85945 3.67644,-5.31041 2.04247,-2.45096 2.85945,-3.26794 1.63397,-2.04247 4.90192,-6.53589 3.67644,-4.49342 6.94438,-9.39534 3.67644,-4.90192 6.53589,-8.98685 2.85945,-4.49342 3.67643,-5.7189 1.22548,-2.04246 4.90192,-7.35287 3.67644,-5.71891 7.76137,-11.8463 4.49342,-6.53589 8.16986,-12.25479 4.08493,-6.1274 6.12739,-8.98685 0.4085,-1.22548 2.85945,-5.31041 2.45096,-4.08493 3.26795,-5.7189 0.40849,-0.81698 1.63397,-3.26794 1.63397,-2.45096 3.26794,-5.31041 1.63398,-2.85945 2.85946,-5.31041 1.22547,-2.45096 1.22547,-3.26795 0.81699,-0.81698 1.22548,-3.26794 0.81699,-2.45096 0.81699,-3.26794 0,-0.81699 0.40849,-2.04247 0.81699,-1.63397 0.81699,-2.45096 0,-0.81698 -0.81699,-2.45095 -0.40849,-1.63398 -0.40849,-2.45096 0,-0.4085 -0.81699,-2.85945 -0.40849,-2.45096 -1.22548,-3.26795 -0.40849,-0.81698 -2.85945,-3.26794 -2.45095,-2.45096 -3.26794,-3.26795 -0.81699,-0.81698 -2.45096,-1.22548 -1.63397,-0.81698 -2.45096,-0.81698 -1.22548,-0.40849 -5.31041,-1.22548 -4.08493,-1.22548 -5.7189,-1.22548 -0.40849,0 -4.49342,0.40849 -3.67644,0.4085 -5.31041,0.4085 0,0.81698 0,2.85945 0.40849,1.63397 0.81699,4.08493 0.40849,2.45096 0.40849,4.90191 0,2.04247 -0.40849,2.85946 0,2.85945 -2.04247,4.90191 0,-0.81698 -0.81699,-1.63397 -0.81698,-0.81699 -0.81698,-1.63397 -0.40849,-0.4085 -0.81699,-2.45096 -0.40849,-2.45096 -0.81698,-4.90192 -0.4085,-2.45096 -0.81699,-4.49342 0,-2.04247 0,-2.85945 -0.81699,0 -2.85945,0 -2.04247,-0.40849 -2.85945,-0.40849 -0.81699,0 -1.63397,0.40849 -0.81699,0 -1.63398,0 h -2.04246 q -2.04247,0.40849 -3.67644,0.81698 -4.08493,0.81699 -4.90191,1.22548 -1.63398,0 -4.08493,0.81699 -2.45096,0.81699 -3.26795,0.81699 -0.81698,0.81698 -2.45096,1.63397 -1.22548,0.81698 -1.22548,1.63397 -0.81698,0 -1.63397,0.81699 l -0.81698,0.81698 q 0,0.81699 0.81698,4.49343 0.81699,3.26794 1.63397,4.90191 0,0.40849 1.22548,4.08493 1.63398,3.26795 2.45096,3.67644 0.4085,0.81698 1.63397,2.85945 1.63398,2.04246 2.85946,4.49342 1.63397,2.04247 2.85945,4.08493 1.63397,2.04247 1.63397,2.85945 0.40849,0.81699 1.22548,2.85945 1.22548,1.63398 2.04246,3.67644 1.22548,2.04247 2.04247,4.08493 1.22548,1.63397 1.63397,2.04247 v 2.45096 2.04246 q 0,1.22548 -2.04247,4.90192 -2.04246,3.67643 -2.85945,4.08493 -0.40849,0.81698 -2.04246,2.45095 -1.22548,1.63398 -3.26795,3.26795 -1.63397,1.63397 -3.67643,3.26794 -1.63397,1.63397 -2.04247,2.04247 -0.81698,0 -3.67644,2.04246 -2.85945,1.63398 -4.49342,1.63398 l -0.81698,0.81698 q -0.4085,0.40849 -2.04247,0.40849 l -2.04246,-1.22547 q -0.4085,0 -2.450962,-0.4085 -1.633972,-0.40849 -1.633972,-1.22548 -0.816986,-0.81698 -2.450958,-4.49342 -1.633973,-4.08493 -2.450959,-4.90192 -0.408493,0 -2.042465,-2.45095 -1.633972,-2.45096 -3.676437,-5.31041 -1.633972,-3.26795 -3.267944,-5.71891 -1.633972,-2.85945 -2.042465,-3.67643 0,-0.81699 -2.042465,-4.08493 -1.633972,-3.67644 -2.450958,-4.49343 0,-1.22548 -0.816986,-3.67643 -0.816986,-2.85945 -0.816986,-3.67644 v -8.98685 -8.16986 q 0,-1.22548 1.225479,-3.67643 1.225479,-2.45096 2.859451,-4.90192 1.633972,-2.85945 2.859451,-5.31041 1.225479,-2.45096 2.042465,-3.67644 0.408493,-0.81698 2.042465,-2.85945 2.042465,-2.04246 4.493423,-4.08493 2.450958,-2.45096 4.901917,-4.901914 2.859451,-2.450958 4.08493,-3.676437 0,-0.816986 2.450956,-2.450958 2.85945,-1.633972 4.08493,-2.450958 0.81699,-0.408493 3.67644,-2.042465 3.26794,-1.633972 6.94438,-3.267944 3.67644,-1.633972 6.94438,-3.267944 3.26795,-1.633972 4.49342,-2.450958 l 2.45096,-0.816986 q 2.45096,-0.816986 3.67644,-0.816986 0.81699,0 4.08493,-0.816986 3.67644,-1.225479 5.31041,-1.633972 2.04246,0 6.12739,-0.816986 4.08493,-1.225479 4.90192,-1.225479 h 15.93123 14.70575 q 0.40849,0 2.85945,1.225479 2.45096,0.816986 3.26794,0.816986 1.22548,0 3.26795,1.225479 2.04246,0.816986 4.08493,2.042465 2.04246,1.225479 3.67643,2.450958 2.04247,1.225479 2.85945,1.633972 l 2.04247,1.633972 q 0,0.816986 0.40849,2.042465 0.81699,0.816986 1.63397,1.633972 0.81699,1.225479 2.04247,2.450958 l 2.04246,4.08493 q 0.81699,1.633972 1.22548,2.859451 v 9.803836 10.21232 q 0,0.81699 -1.22548,4.49343 -1.22548,3.26794 -2.04246,4.90191 0,0.40849 -2.04247,4.90192 -1.63397,4.49342 -2.04246,6.12739 -0.81699,1.22548 -3.67644,6.53589 -2.45096,4.90192 -3.26794,6.1274 -0.81699,1.22547 -2.45096,4.49342 -1.63397,3.26794 -4.08493,6.94438 -2.04247,3.26794 -4.08493,6.53589 -1.63397,2.85945 -2.04247,4.08493 -0.81698,1.22548 -4.08493,5.7189 -2.85945,4.49342 -6.53588,9.80383 -3.67644,5.31041 -6.94439,10.21233 -3.26794,4.90191 -4.49342,7.35287 -0.81698,1.63397 -3.26794,5.31041 -2.04247,3.26795 -4.49343,6.94438 -2.45095,3.26795 -4.90191,6.53589 -2.04247,2.85945 -2.85945,3.26795 -1.22548,2.04246 -6.1274,8.16986 -4.49342,5.7189 -9.80383,12.66328 -5.31041,6.94438 -10.21233,13.48027 -4.90191,6.53589 -6.94438,9.80383 -0.40849,0.81699 -2.04246,2.45096 -1.22548,1.63397 -2.85945,3.67644 -1.63398,1.63397 -2.85945,3.26794 -1.22548,1.22548 -1.22548,1.63397 -0.81699,1.63397 -3.67644,5.31041 -2.45096,3.26794 -3.26794,4.08493 h 4.90191 4.49342 q 1.22548,0 5.31041,-0.40849 4.49343,-0.81699 9.80384,-1.63397 5.31041,-0.81699 9.80383,-1.63398 4.49342,-0.81698 5.7189,-1.22548 0.81699,0 3.67644,-0.40849 2.85945,-0.40849 5.7189,-0.40849 3.26794,-0.40849 6.1274,-0.81699 3.26794,-0.40849 4.49342,-0.40849 l 2.04246,-2.45096 q -0.81698,-1.22548 -2.45095,-4.08493 -1.63398,-3.26794 -3.26795,-6.53589 -1.63397,-3.67643 -3.26794,-6.94438 -1.63397,-3.26794 -2.04247,-4.49342 0,-0.81699 -1.22548,-3.26795 -0.81698,-2.45095 -0.81698,-3.26794 v -4.49342 -3.67644 q 0,-2.85945 2.04246,-4.90192 0,-0.81698 0.4085,-1.63397 0.81698,-1.22548 1.63397,-2.04246 0.81698,-1.22548 2.04246,-2.45096 0.81699,-0.81699 2.45096,-2.85945 1.63397,-2.04247 2.45096,-2.04247 0.81698,-0.40849 3.26794,-2.04246 2.45096,-1.63397 2.85945,-2.04247 2.04247,-2.04246 4.90192,-2.04246 l 2.04246,-1.22548 q 0,0.40849 0.4085,0.40849 0.40849,0 0.40849,0.40849 0,0 0.40849,0 0.4085,0.4085 1.22548,0.4085 0.81699,0 1.63397,0.40849 2.04247,1.22548 2.04247,1.63397 0.40849,1.22548 2.04247,4.49343 2.04246,3.26794 3.67643,6.53588 2.04247,3.26795 3.26795,6.53589 1.63397,3.26795 2.04246,4.49343 l 7.35288,11.02931 q 0.40849,0.81698 3.26794,4.08493 3.26794,2.85945 6.53589,6.53589 3.67643,3.67643 6.94438,6.94438 3.67644,3.26794 5.31041,4.49342 0.81698,0.40849 2.04246,0.81699 2.45096,0.81698 2.85945,0.81698 0,0.81699 3.26795,1.63397 3.26794,0.4085 4.49342,0.81699 0.40849,0 2.04247,0.40849 2.04246,0.4085 3.67643,0.81699 2.04247,0 3.67644,0.40849 1.63397,0.40849 1.63397,0.40849 0.81699,0 2.45096,1.22548 1.63397,0.81699 2.45096,1.63398 0.81698,0 2.04246,2.04246 1.63398,1.63397 2.45096,1.63397 v 0.81699 1.63397 q -0.81698,0.81699 -1.63397,3.67644 -0.40849,2.45096 -0.81699,3.26794 0,0.4085 -1.63397,2.85945 -1.63397,2.45096 -2.04246,3.26795 l -4.90192,4.90191 q -1.63397,1.22548 -5.31041,3.67644 -3.26794,2.45096 -4.08493,2.45096 -0.40849,0.81698 -2.85945,1.63397 -2.45096,0.40849 -3.26794,1.22548 h -4.90192 -4.08493 q -0.81699,-0.40849 -4.08493,-1.22548 -3.26794,-0.81699 -6.94438,-1.63397 -3.67644,-0.81699 -6.94438,-1.22548 -3.26795,-0.81699 -4.08493,-0.81699 h -15.93123 -14.70575 q -0.40849,0 -1.63397,1.22548 l -0.81699,0.81699 v 13.88876 q 0,0.81699 -1.22548,4.08493 -0.81698,3.26795 -0.81698,4.08493 -0.81699,0 -1.63397,-1.22548 -0.4085,-0.81698 -1.22548,-0.81698 0,-0.4085 -1.22548,-2.85945 -0.81699,-2.45096 -0.81699,-3.26795 0,-1.22548 -0.81698,-6.94438 -0.81699,-5.7189 -0.81699,-6.94438 h -4.49342 q 0,3.26794 -0.4085,11.4378 0,8.57836 -0.40849,17.5652 -0.40849,9.39534 -1.22548,17.5652 -0.40849,8.16986 -0.81698,11.43781 0,2.04246 -0.4085,4.90191 -0.40849,2.85945 -0.81698,5.7189 -0.4085,3.26795 -0.81699,6.53589 h -3.67644 v -75.16271 z m 217.72699,9.80383 -4.08493,2.85945 q 0,1.63397 -1.22548,6.53589 -0.81698,4.90192 -0.81698,6.53589 0,0.40849 -1.22548,2.04246 -0.81699,1.63398 -1.63398,2.04247 h -0.81698 -1.22548 q 0,-0.81699 -0.40849,-3.26795 0,-2.04246 -0.4085,-4.49342 -0.40849,-2.45096 -0.81698,-4.49342 0,-2.04247 0,-2.85945 -1.22548,-2.04247 -2.45096,-2.04247 -0.40849,-0.40849 -2.45096,-0.40849 -2.04246,0 -4.49342,0 -2.04247,0 -4.08493,0 -1.63397,0.40849 -2.04247,0.40849 -1.22548,-0.81698 -6.53589,-1.63397 -5.3104,-0.40849 -7.35287,-1.22548 -0.81699,0 -3.26794,-0.81699 -2.45096,-1.22547 -2.85945,-1.22547 -0.81699,0 -3.67644,-1.22548 -2.45096,-1.22548 -5.31041,-2.85945 -2.85945,-1.63398 -5.7189,-2.85946 -2.45096,-1.63397 -3.26795,-2.04246 h -0.40849 -2.04247 q -0.81698,0.81699 -5.3104,2.85945 -4.08493,2.04247 -5.71891,2.04247 h -1.22548 -0.40849 q -0.81698,-0.81699 -2.85945,-2.45096 -2.04246,-1.63397 -2.04246,-2.45096 v -2.45096 -3.67644 q 0,-0.40849 0.40849,-2.04246 0.40849,-2.04247 0.81698,-3.67644 0.81699,-2.04246 1.22548,-3.67643 0.4085,-1.63398 0.4085,-1.63398 v -20.42465 -19.60766 q -2.45096,-0.81699 -4.90192,-2.45096 -0.81699,0 -2.85945,0 -2.04247,-0.40849 -4.90192,-0.81699 -2.45096,-0.40849 -4.90191,-0.40849 -2.04247,-0.40849 -2.45096,-0.40849 -0.81699,0 -2.45096,-2.04247 -1.63397,-2.04246 -2.45096,-2.85945 v -2.04246 -2.45096 q 0.81699,-1.22548 2.45096,-4.49342 1.63397,-3.26795 2.45096,-4.08493 0.40849,-0.81699 2.45096,-2.85946 2.45095,-2.45095 4.90191,-4.90191 2.45096,-2.45096 4.49343,-4.49342 2.45095,-2.04247 3.26794,-2.85946 v -3.26794 q -2.45096,-12.66328 -4.90192,-24.50958 -2.04246,-10.21233 -4.49342,-20.83314 -2.45096,-10.62082 -4.08493,-17.5652 0,-1.63398 -0.81699,-4.49343 -0.81698,-3.26794 -0.81698,-4.90191 0,-0.81699 -1.22548,-3.26795 -0.81699,-2.45096 -0.81699,-3.26794 -0.40849,-0.81699 -1.63397,-2.85945 -0.81698,-2.04247 -2.04246,-4.08493 -1.22548,-2.04247 -2.45096,-3.67644 -0.81699,-2.04246 -1.22548,-2.85945 0,-0.81699 -0.81699,-3.26794 -0.81698,-2.85946 -0.81698,-3.67644 v -6.1274 -6.53589 q 0,-0.81698 1.63397,-4.08493 2.04246,-3.67643 2.45096,-5.310404 0.81698,-0.408493 4.08493,-3.676438 3.26794,-3.676437 4.49342,-4.08493 1.63397,-1.633972 4.08493,-3.267944 2.45096,-1.633972 3.26794,-1.633972 h 4.49343 6.53589 l 0.81698,0.816986 q 0,0.408493 0.81699,0.408493 0.40849,0 0.40849,0.408493 0,0.816986 0.81699,2.450958 0.81698,1.633972 0.81698,2.450958 0.4085,0.816986 1.22548,3.676437 1.22548,2.450959 2.45096,5.718903 1.22548,2.85945 2.04247,5.31041 1.22547,2.45096 1.63397,2.45096 0,0.81698 3.26794,4.49342 3.26795,3.26794 4.90192,4.90192 1.22548,0.81698 3.67643,2.45095 2.85946,1.63398 5.71891,4.08493 3.26794,2.04247 6.12739,4.08493 3.26795,1.63398 4.49343,2.04247 0.81698,0.81699 3.26794,2.04246 2.45096,1.22548 5.31041,2.85946 2.85945,1.22547 5.31041,2.45095 2.85945,1.22548 4.08493,2.04247 2.04246,0.81698 8.57835,3.26794 6.53589,2.45096 8.57835,3.26795 1.22548,0.81698 7.35288,2.45095 6.12739,1.22548 8.57835,2.04247 1.22548,0.40849 4.08493,1.22548 2.85945,0.40849 5.31041,1.22548 2.85945,0.81698 4.90192,1.63397 2.45096,0.40849 2.85945,0.81699 2.04246,0 6.53589,1.22548 4.90191,0.81698 10.21232,2.04246 5.31041,0.81699 9.80383,1.63397 4.90192,0.81699 6.53589,1.22548 1.22548,0 2.04247,0.81699 l 0.81698,0.81698 v 4.90192 4.49342 q 0,0.81699 -1.22548,2.45096 -0.81698,1.63397 -1.63397,2.45096 -0.81698,0.81698 -2.85945,2.85945 -1.63397,2.04246 -3.67644,4.08493 -2.04246,2.04247 -4.08493,3.67644 -1.63397,1.63397 -2.45095,2.04246 0,0.4085 -1.63398,1.22548 -1.63397,0.81699 -3.67643,2.04247 -2.04247,0.81698 -4.08493,2.04246 -2.04247,0.81699 -3.26795,0.81699 -0.81698,0.40849 -4.49342,2.04246 -3.26794,1.22548 -6.94438,2.85945 -3.67644,1.63398 -6.94438,2.85945 -3.26795,1.22548 -3.67644,1.63398 -2.04247,0.81698 -7.35287,3.26794 -4.90192,2.45096 -6.1274,3.26794 h 4.08493 4.90192 q 0.81698,0 3.26794,0 2.45096,-0.40849 5.31041,-0.81698 2.85945,-0.40849 5.31041,-0.40849 2.45096,-0.4085 3.26794,-0.4085 2.04247,-0.40849 6.94438,-0.81698 4.90192,-0.4085 10.21233,-0.81699 5.31041,-0.40849 9.80383,-0.81699 4.49343,-0.40849 6.1274,-0.81698 h 8.57835 7.35287 q 0.81699,0.40849 3.67644,0.81698 2.85945,0.4085 6.1274,0.81699 3.26794,0.40849 6.12739,0.81699 3.26795,0.40849 4.49343,0.81698 l 2.45095,0.81699 q 2.45096,0.81698 3.67644,0.81698 2.45096,1.63398 4.90192,2.45096 0.40849,0.81699 2.85945,3.67644 2.45096,2.45096 3.26794,3.26794 0.40849,1.22548 0.81699,2.04247 0,0.40849 0,0.81699 0.40849,0 0.40849,0.40849 0,0.40849 0.40849,0.81698 0.81699,0.81699 1.63398,4.49343 0.81698,3.26794 1.63397,4.08493 v 3.67643 2.45096 q -0.81699,1.63397 -1.63397,5.31041 -0.81699,3.26795 -1.63398,4.08493 -0.40849,1.22548 -2.85945,6.53589 -2.45096,5.31041 -3.26794,7.35287 -0.81699,0.81699 -2.45096,3.26795 -1.63397,2.45096 -2.45096,2.85945 -0.81698,1.22548 -4.08493,4.49342 -2.85945,2.85945 -6.53589,6.53589 -3.67643,3.26794 -6.94438,6.53589 -3.26794,3.26794 -4.49342,4.49342 -0.40849,0.81699 -4.08493,3.67644 -3.26794,2.45096 -3.67644,3.26794 -1.63397,0.4085 -6.53589,2.85945 -4.49342,2.45096 -5.7189,3.26795 -0.81698,0.81698 -3.26794,2.04246 -2.45096,1.22548 -5.31041,2.45096 -2.45096,1.22548 -5.31041,2.85945 -2.45096,1.22548 -3.26794,1.63397 -0.81699,0.81699 -5.31041,2.45096 -4.49343,1.63397 -5.71891,2.45096 -1.22547,0.40849 -4.08493,1.22548 -2.85945,0.81699 -6.12739,2.04246 -2.85945,0.81699 -5.7189,2.04247 -2.45096,0.81699 -3.67644,0.81699 -0.81699,2.45095 -1.63397,8.98684 -0.81699,6.53589 -0.81699,8.98685 0,2.04246 -0.81698,10.21232 -0.4085,8.57836 -1.22548,18.38219 -0.81699,9.80383 -1.63398,17.97369 -0.81698,8.57835 -1.22547,11.02931 0,1.22548 -0.4085,3.67644 -0.40849,2.85945 -0.81698,5.7189 0,2.85945 -0.4085,5.31041 -0.40849,2.45096 -0.40849,2.85945 0,0.81699 -0.81699,3.26795 -0.81698,2.45095 -0.81698,2.85945 0,-1.22548 -0.40849,-5.31041 0,-3.67644 0,-7.76137 0,-4.08493 -0.4085,-8.16986 0,-3.67644 0,-4.90192 0,-2.45095 0,-6.94438 0.4085,-4.08493 0.4085,-8.57835 0,-4.08493 0,-7.35287 0.40849,-3.26795 0.40849,-4.08493 0,-0.81699 0,-5.71891 0.40849,-4.90191 0.81698,-10.62081 0.4085,-5.31041 0.4085,-10.62082 0.40849,-4.90192 0.40849,-6.1274 v -5.7189 z m 4.90192,-81.6986 q 0,1.63397 -1.22548,4.90191 -0.81699,2.85946 -1.63397,4.49343 0,0.40849 -1.22548,2.04246 -0.81699,1.63398 -0.81699,2.04247 -0.40849,1.22548 -2.04246,0.40849 l -1.63398,-0.81698 V 248.16172 H 349.264 q -1.22548,0.81698 -6.53589,1.63397 -5.31041,0.40849 -7.35288,0.81699 -1.63397,0.40849 -5.31041,1.22548 -3.26794,0.40849 -6.94438,1.22547 -3.26794,0.81699 -6.53589,1.63398 -2.85945,0.40849 -3.26794,0.81698 -0.81699,0 -2.45096,0.81699 -1.22548,0.40849 -1.22548,1.22548 v 22.05862 q 1.22548,1.22548 2.85945,2.45096 3.26795,2.45096 5.71891,3.67644 1.22548,0.81698 3.67643,2.45095 2.45096,1.63398 2.45096,2.45096 1.22548,0.40849 4.90192,2.04247 3.67644,1.63397 4.08493,2.04246 0.81698,0 1.63397,0.4085 1.22548,0.40849 2.45096,0.81698 1.63397,0.40849 2.85945,0.81699 h 11.4378 13.07178 q 2.45096,-0.4085 4.49342,-0.81699 2.04247,-0.40849 3.67644,-0.81698 2.04247,-0.4085 2.85945,-0.4085 1.22548,-0.40849 4.49342,-0.81698 3.26795,-0.81699 4.08493,-1.63398 2.85946,-0.81698 7.76137,-2.04246 4.90192,-1.63397 5.7189,-1.63397 1.22548,-0.4085 4.49343,-2.04247 3.26794,-2.04246 6.53589,-3.67644 3.26794,-2.04246 6.53588,-3.26794 3.26795,-1.63397 4.49343,-2.04246 0,-0.81699 3.26794,-3.26795 3.67644,-2.45096 5.31041,-4.08493 0.40849,0 0.81699,-0.81698 0.81698,-0.81699 1.63397,-0.81699 0,-0.81699 0.81698,-2.45096 0.81699,-1.63397 0.81699,-2.45096 v -4.49342 -3.67644 q 0,-0.81698 -2.45096,-3.67643 -2.04246,-2.85946 -3.67644,-3.67644 -0.81698,0 -3.26794,-0.81699 -2.45096,-0.81698 -3.26794,-0.81698 h -48.61067 q 0,2.04246 -0.40849,6.94438 0,4.90191 -0.4085,10.62082 -0.40849,5.31041 -1.22548,10.62081 -0.40849,4.90192 -0.81698,6.53589 0,1.63397 -1.22548,5.31041 -0.81699,3.26795 -0.81699,4.08493 0,-0.81698 -0.40849,-2.85945 0,-2.45096 -0.40849,-4.90192 -0.4085,-2.45095 -0.81699,-4.49342 0,-2.45096 0,-3.67644 -0.40849,-1.22547 -0.81699,-4.90191 -0.40849,-3.67644 -0.81698,-7.76137 -0.4085,-4.49342 -0.81699,-8.16986 0,-4.08493 0,-5.7189 z m -13.88877,-33.08794 q -1.63397,0 -1.63397,2.45096 0,2.04247 1.63397,2.04247 2.04247,0 2.04247,-2.04247 0,-2.45096 -2.04247,-2.45096 z M 302.2873,204.04447 q 0.81699,0.81699 1.22548,1.63398 0.81698,0.40849 1.63397,0.81698 h 0.81699 1.22548 q 1.22547,-0.40849 3.67643,-0.81698 2.45096,-0.81699 2.45096,-1.63398 1.63397,-0.40849 5.7189,-2.04246 4.08493,-2.04247 8.16986,-4.08493 4.49343,-2.45096 8.16986,-4.08493 3.67644,-1.63397 4.90192,-2.45096 0.40849,0 0.81699,-1.22548 0.81698,-1.22548 1.63397,-2.04246 L 302.2873,175.44996 h -4.49342 v 6.53589 q 0.40849,1.22548 0.81698,4.49342 0.81699,3.26795 1.22548,6.94439 0.81699,3.26794 1.22548,6.53588 0.81699,2.85945 1.22548,4.08493 z"
   id="text66"
   style="font-size:408.493px;line-height:0.9;font-family:'a dripping marker';-inkscape-font-specification:'a dripping marker';text-align:center;letter-spacing:0px;text-anchor:middle;stroke-width:3.06695"
   aria-label="2B" /></svg>
